<svg xmlns="http://www.w3.org/2000/svg" viewBox="0 0 561 654">
<path d="M 420 334 L 419 335 L 416 335 L 415 336 L 413 336 L 411 338 L 410 338 L 407 341 L 407 342 L 405 344 L 405 346 L 404 347 L 404 447 L 403 448 L 308 448 L 307 449 L 304 449 L 303 450 L 302 450 L 301 451 L 300 451 L 299 452 L 298 452 L 296 454 L 296 455 L 294 457 L 294 458 L 293 459 L 293 460 L 292 461 L 292 463 L 291 464 L 291 475 L 292 476 L 292 478 L 293 479 L 293 480 L 294 481 L 294 482 L 299 487 L 301 487 L 302 488 L 303 488 L 304 489 L 308 489 L 309 490 L 403 490 L 404 491 L 404 588 L 405 589 L 405 592 L 407 594 L 407 595 L 412 600 L 413 600 L 414 601 L 416 601 L 417 602 L 420 602 L 421 603 L 428 603 L 429 602 L 432 602 L 433 601 L 435 601 L 437 599 L 438 599 L 440 597 L 440 596 L 442 594 L 442 592 L 443 591 L 443 589 L 444 588 L 444 491 L 445 490 L 542 490 L 543 489 L 546 489 L 547 488 L 549 488 L 550 487 L 551 487 L 553 485 L 554 485 L 556 483 L 556 482 L 558 480 L 558 479 L 559 478 L 559 476 L 560 475 L 560 473 L 561 472 L 561 463 L 560 462 L 560 460 L 559 459 L 559 457 L 557 455 L 557 454 L 555 452 L 554 452 L 552 450 L 551 450 L 550 449 L 548 449 L 547 448 L 445 448 L 444 447 L 444 350 L 443 349 L 443 346 L 442 345 L 442 344 L 441 343 L 441 342 L 436 337 L 435 337 L 434 336 L 432 336 L 431 335 L 429 335 L 428 334 Z" fill="#f66a13" stroke="#f66a13" stroke-width="1"/>
<path d="M 38 0 L 37 1 L 33 1 L 32 2 L 30 2 L 29 3 L 27 3 L 26 4 L 25 4 L 24 5 L 23 5 L 22 6 L 21 6 L 20 7 L 19 7 L 16 10 L 15 10 L 9 16 L 9 17 L 7 19 L 7 20 L 5 22 L 5 24 L 4 25 L 4 26 L 3 27 L 3 29 L 2 30 L 2 32 L 1 33 L 1 37 L 0 38 L 0 616 L 1 617 L 1 620 L 2 621 L 2 624 L 3 625 L 3 627 L 4 628 L 4 629 L 5 630 L 5 631 L 6 632 L 6 633 L 8 635 L 8 636 L 18 646 L 19 646 L 20 647 L 21 647 L 23 649 L 25 649 L 26 650 L 27 650 L 28 651 L 30 651 L 31 652 L 33 652 L 34 653 L 38 653 L 39 654 L 476 654 L 477 653 L 481 653 L 482 652 L 485 652 L 486 651 L 488 651 L 489 650 L 490 650 L 491 649 L 493 649 L 495 647 L 496 647 L 497 646 L 498 646 L 508 636 L 508 635 L 510 633 L 510 632 L 511 631 L 511 630 L 512 629 L 512 627 L 513 626 L 513 625 L 514 624 L 514 621 L 515 620 L 515 618 L 516 617 L 516 538 L 515 537 L 515 535 L 514 534 L 514 533 L 509 528 L 507 528 L 506 527 L 498 527 L 497 528 L 496 528 L 495 529 L 494 529 L 491 532 L 491 533 L 490 534 L 490 535 L 489 536 L 489 538 L 488 539 L 488 613 L 487 614 L 487 615 L 486 616 L 486 617 L 481 622 L 480 622 L 479 623 L 478 623 L 477 624 L 219 624 L 218 625 L 217 625 L 216 624 L 38 624 L 36 622 L 35 622 L 30 617 L 30 616 L 29 615 L 29 611 L 28 610 L 28 50 L 29 49 L 29 40 L 30 39 L 30 38 L 31 37 L 31 36 L 34 33 L 35 33 L 37 31 L 39 31 L 40 30 L 327 30 L 328 31 L 328 157 L 329 158 L 329 161 L 330 162 L 330 164 L 331 165 L 331 167 L 332 168 L 332 169 L 333 170 L 333 171 L 334 172 L 334 173 L 335 174 L 335 175 L 337 177 L 337 178 L 347 188 L 348 188 L 351 191 L 352 191 L 353 192 L 354 192 L 356 194 L 358 194 L 359 195 L 361 195 L 362 196 L 363 196 L 364 197 L 367 197 L 368 198 L 487 198 L 488 199 L 488 388 L 489 389 L 489 392 L 490 393 L 490 394 L 491 395 L 491 396 L 494 399 L 496 399 L 497 400 L 498 400 L 499 401 L 505 401 L 506 400 L 508 400 L 509 399 L 510 399 L 514 395 L 514 393 L 515 392 L 515 390 L 516 389 L 516 176 L 515 175 L 515 173 L 514 172 L 514 171 L 513 170 L 513 169 L 480 136 L 480 135 L 479 134 L 478 134 L 477 133 L 477 132 L 366 21 L 366 20 L 355 9 L 354 9 L 351 6 L 350 6 L 348 4 L 346 4 L 345 3 L 344 3 L 343 2 L 341 2 L 340 1 L 337 1 L 336 0 Z" fill="#25789a" stroke="#25789a" stroke-width="1"/></svg>