<?xml version="1.0" encoding="utf-8"?>
<svg viewBox="0 0 664 758" xmlns="http://www.w3.org/2000/svg">
<path d="M 466 284 L 465 285 L 463 285 L 462 286 L 461 286 L 460 287 L 459 287 L 455 291 L 455 292 L 453 294 L 453 296 L 452 297 L 452 299 L 451 300 L 451 391 L 450 392 L 445 392 L 444 393 L 431 393 L 430 392 L 428 392 L 427 393 L 426 393 L 425 392 L 414 392 L 413 393 L 410 393 L 409 392 L 408 393 L 407 392 L 400 392 L 399 393 L 397 393 L 396 392 L 395 392 L 394 393 L 393 392 L 389 392 L 388 393 L 385 393 L 384 392 L 377 392 L 376 393 L 375 393 L 374 392 L 373 393 L 372 392 L 371 393 L 362 393 L 361 392 L 356 392 L 355 393 L 353 393 L 352 392 L 351 392 L 350 393 L 338 393 L 337 392 L 333 392 L 332 393 L 329 393 L 328 392 L 327 393 L 322 393 L 321 392 L 313 392 L 312 393 L 308 393 L 307 394 L 305 394 L 304 395 L 303 395 L 302 396 L 300 396 L 298 398 L 297 398 L 291 404 L 291 405 L 289 407 L 289 408 L 288 409 L 288 411 L 287 412 L 287 415 L 286 416 L 286 528 L 287 529 L 287 532 L 288 533 L 288 534 L 289 535 L 289 536 L 290 537 L 290 539 L 292 541 L 292 542 L 299 549 L 300 549 L 301 550 L 302 550 L 303 551 L 304 551 L 305 552 L 306 552 L 307 553 L 310 553 L 311 554 L 449 554 L 451 556 L 451 648 L 452 649 L 452 651 L 454 653 L 454 654 L 459 659 L 460 659 L 461 660 L 463 660 L 464 661 L 465 661 L 466 662 L 475 662 L 476 661 L 478 661 L 479 660 L 481 660 L 482 659 L 483 659 L 485 657 L 486 657 L 505 638 L 506 638 L 554 590 L 555 590 L 595 550 L 596 550 L 641 505 L 642 505 L 660 487 L 660 486 L 661 485 L 661 483 L 662 482 L 662 481 L 663 480 L 663 478 L 664 477 L 664 470 L 663 469 L 663 466 L 662 465 L 662 463 L 660 461 L 660 460 L 627 427 L 626 427 L 581 382 L 580 382 L 537 339 L 536 339 L 488 291 L 487 291 L 483 287 L 482 287 L 481 286 L 480 286 L 479 285 L 477 285 L 476 284 Z" fill="#f97404" stroke="#f97404" stroke-width="1"/>
<path d="M 423 0 L 422 1 L 46 1 L 45 2 L 41 2 L 40 3 L 37 3 L 36 4 L 34 4 L 33 5 L 32 5 L 31 6 L 30 6 L 29 7 L 28 7 L 27 8 L 26 8 L 24 10 L 23 10 L 18 15 L 17 15 L 14 18 L 14 19 L 10 23 L 10 24 L 8 26 L 8 27 L 7 28 L 7 29 L 6 30 L 6 31 L 5 32 L 5 33 L 4 34 L 4 36 L 3 37 L 3 39 L 2 40 L 2 43 L 1 44 L 1 48 L 0 49 L 0 704 L 1 705 L 1 711 L 2 712 L 2 715 L 3 716 L 3 719 L 4 720 L 4 722 L 5 723 L 5 724 L 6 725 L 6 727 L 7 728 L 7 729 L 8 730 L 8 731 L 9 732 L 9 733 L 11 735 L 11 736 L 13 738 L 13 739 L 22 748 L 23 748 L 25 750 L 26 750 L 28 752 L 30 752 L 31 753 L 32 753 L 33 754 L 35 754 L 36 755 L 38 755 L 39 756 L 42 756 L 43 757 L 52 757 L 53 758 L 585 758 L 586 757 L 593 757 L 594 756 L 599 756 L 600 755 L 602 755 L 603 754 L 604 754 L 605 753 L 607 753 L 608 752 L 609 752 L 610 751 L 611 751 L 612 750 L 613 750 L 616 747 L 617 747 L 625 739 L 625 738 L 628 735 L 628 734 L 629 733 L 629 732 L 630 731 L 630 730 L 631 729 L 631 728 L 632 727 L 632 726 L 633 725 L 633 723 L 634 722 L 634 721 L 635 720 L 635 717 L 636 716 L 636 713 L 637 712 L 637 706 L 638 705 L 638 652 L 637 651 L 637 598 L 636 597 L 636 593 L 635 592 L 635 590 L 634 589 L 634 588 L 629 583 L 627 583 L 626 582 L 625 582 L 624 581 L 614 581 L 613 582 L 612 582 L 611 583 L 610 583 L 609 584 L 608 584 L 604 588 L 604 589 L 603 590 L 603 591 L 602 592 L 602 595 L 601 596 L 602 597 L 602 598 L 601 599 L 602 600 L 602 707 L 601 708 L 601 710 L 599 712 L 599 713 L 596 716 L 596 717 L 594 719 L 593 719 L 591 721 L 590 721 L 589 722 L 49 722 L 47 720 L 46 720 L 40 714 L 40 713 L 39 712 L 39 711 L 37 709 L 37 706 L 36 705 L 36 51 L 37 50 L 37 48 L 39 46 L 39 45 L 44 40 L 45 40 L 47 38 L 49 38 L 50 37 L 423 37 L 424 38 L 424 174 L 425 175 L 425 179 L 426 180 L 426 183 L 427 184 L 427 186 L 428 187 L 428 189 L 429 190 L 429 191 L 430 192 L 430 193 L 431 194 L 431 196 L 432 197 L 432 198 L 434 200 L 434 201 L 436 203 L 436 204 L 439 207 L 439 208 L 443 212 L 444 212 L 447 215 L 448 215 L 450 217 L 451 217 L 452 218 L 453 218 L 454 219 L 456 219 L 457 220 L 458 220 L 459 221 L 461 221 L 462 222 L 465 222 L 466 223 L 469 223 L 470 224 L 477 224 L 478 225 L 600 225 L 601 226 L 601 350 L 602 351 L 602 353 L 603 354 L 603 355 L 604 356 L 604 357 L 607 360 L 608 360 L 609 361 L 610 361 L 611 362 L 612 362 L 613 363 L 616 363 L 617 364 L 620 364 L 621 363 L 624 363 L 625 362 L 626 362 L 627 361 L 628 361 L 629 360 L 630 360 L 633 357 L 633 356 L 635 354 L 635 352 L 636 351 L 636 271 L 637 270 L 637 201 L 636 200 L 636 196 L 635 195 L 635 192 L 634 191 L 634 190 L 633 189 L 633 187 L 632 186 L 632 185 L 631 184 L 631 183 L 630 182 L 630 181 L 629 180 L 629 179 L 628 178 L 628 177 L 626 175 L 626 174 L 623 171 L 623 170 L 504 51 L 503 51 L 469 17 L 468 17 L 463 12 L 462 12 L 460 10 L 459 10 L 457 8 L 455 8 L 454 7 L 453 7 L 452 6 L 451 6 L 450 5 L 448 5 L 447 4 L 445 4 L 444 3 L 442 3 L 441 2 L 437 2 L 436 1 L 426 1 L 425 0 Z" fill="#1e7ea4" stroke="#1e7ea4" stroke-width="1"/><text fill="#00C853" font-family="Arial" font-size="450" font-weight="bold" x="50" y="390">G</text></svg>